<?xml version="1.0" encoding="utf-8"?>
<!-- Generator: Adobe Illustrator 17.0.0, SVG Export Plug-In . SVG Version: 6.00 Build 0)  -->
<!DOCTYPE svg PUBLIC "-//W3C//DTD SVG 1.1//EN" "http://www.w3.org/Graphics/SVG/1.1/DTD/svg11.dtd">
<svg version="1.1" id="Layer_1" xmlns="http://www.w3.org/2000/svg" xmlns:xlink="http://www.w3.org/1999/xlink" x="0px" y="0px"
	 width="12px" height="10.286px" viewBox="427.313 390.857 12 10.286" enable-background="new 427.313 390.857 12 10.286"
	 xml:space="preserve">
<g>
	<path fill-rule="evenodd" clip-rule="evenodd" fill="#C8DAEA" d="M431.918,400.294c-0.39,0-0.293-0.195-0.39-0.488l-1.074-3.319
		l7.809-4.686 M431.918,400.294L431.918,400.294L431.918,400.294z"/>
	<path fill-rule="evenodd" clip-rule="evenodd" fill="#A9C9DD" d="M431.918,400.294c0.195,0,0.39-0.195,0.488-0.293l1.464-1.367
		l-1.757-1.074 M431.918,400.294L431.918,400.294L431.918,400.294z"/>
	<g>
		<defs>
			<path id="SVGID_15_" d="M432.113,397.56l4.198,3.124c0.488,0.293,0.879,0.195,0.976-0.39l1.757-8.297
				c0.195-0.683-0.293-0.976-0.683-0.781l-10.25,3.905c-0.781,0.293-0.683,0.683-0.195,0.879l2.636,0.781l6.15-3.807
				c0.293-0.195,0.488-0.098,0.293,0.098L432.113,397.56z M432.113,397.56L432.113,397.56L432.113,397.56z"/>
		</defs>
		<clipPath id="SVGID_1_">
			<use xlink:href="#SVGID_15_"  overflow="visible"/>
		</clipPath>
		<polygon clip-path="url(#SVGID_1_)" fill-rule="evenodd" clip-rule="evenodd" fill="#EFF7FC" points="437.775,388.97 
			438.946,390.727 428.306,397.365 427.232,395.51 		"/>
		<polygon clip-path="url(#SVGID_1_)" fill-rule="evenodd" clip-rule="evenodd" fill="#EFF7FC" points="438.849,390.727 
			438.946,390.825 428.404,397.463 428.306,397.365 		"/>
		<polygon clip-path="url(#SVGID_1_)" fill-rule="evenodd" clip-rule="evenodd" fill="#F0F7FC" points="438.946,390.825 
			439.044,390.922 428.404,397.56 428.404,397.365 		"/>
		<polygon clip-path="url(#SVGID_1_)" fill-rule="evenodd" clip-rule="evenodd" fill="#F0F8FC" points="438.946,390.922 
			439.044,391.02 428.501,397.658 428.404,397.463 		"/>
		<polygon clip-path="url(#SVGID_1_)" fill-rule="evenodd" clip-rule="evenodd" fill="#F1F8FC" points="439.044,391.02 
			439.142,391.118 428.599,397.658 428.501,397.56 		"/>
		<polygon clip-path="url(#SVGID_1_)" fill-rule="evenodd" clip-rule="evenodd" fill="#F1F8FC" points="439.044,391.02 
			439.142,391.215 428.599,397.756 428.501,397.658 		"/>
		<polygon clip-path="url(#SVGID_1_)" fill-rule="evenodd" clip-rule="evenodd" fill="#F1F8FC" points="439.142,391.118 
			439.239,391.215 428.697,397.853 428.599,397.756 		"/>
		<polygon clip-path="url(#SVGID_1_)" fill-rule="evenodd" clip-rule="evenodd" fill="#F2F8FD" points="439.239,391.215 
			439.239,391.313 428.697,397.951 428.599,397.853 		"/>
		<polygon clip-path="url(#SVGID_1_)" fill-rule="evenodd" clip-rule="evenodd" fill="#F2F9FD" points="439.239,391.313 
			439.337,391.411 428.794,398.048 428.697,397.853 		"/>
		<polygon clip-path="url(#SVGID_1_)" fill-rule="evenodd" clip-rule="evenodd" fill="#F2F9FD" points="439.337,391.411 
			439.337,391.508 428.794,398.146 428.697,397.951 		"/>
		<polygon clip-path="url(#SVGID_1_)" fill-rule="evenodd" clip-rule="evenodd" fill="#F3F9FD" points="439.337,391.508 
			439.434,391.606 428.892,398.146 428.794,398.048 		"/>
		<polygon clip-path="url(#SVGID_1_)" fill-rule="evenodd" clip-rule="evenodd" fill="#F3F9FD" points="439.434,391.508 
			439.434,391.703 428.892,398.244 428.794,398.146 		"/>
		<polygon clip-path="url(#SVGID_1_)" fill-rule="evenodd" clip-rule="evenodd" fill="#F4F9FD" points="439.434,391.606 
			439.532,391.801 428.989,398.341 428.892,398.244 		"/>
		<polygon clip-path="url(#SVGID_1_)" fill-rule="evenodd" clip-rule="evenodd" fill="#F4F9FD" points="439.532,391.703 
			439.532,391.801 428.989,398.439 428.892,398.341 		"/>
		<polygon clip-path="url(#SVGID_1_)" fill-rule="evenodd" clip-rule="evenodd" fill="#F4FAFD" points="439.532,391.801 
			439.63,391.899 429.087,398.537 428.989,398.439 		"/>
		<polygon clip-path="url(#SVGID_1_)" fill-rule="evenodd" clip-rule="evenodd" fill="#F5FAFD" points="439.63,391.899 
			439.727,391.996 429.087,398.634 429.087,398.439 		"/>
		<polygon clip-path="url(#SVGID_1_)" fill-rule="evenodd" clip-rule="evenodd" fill="#F5FAFD" points="439.63,391.996 
			439.727,392.094 429.185,398.732 429.087,398.537 		"/>
		<polygon clip-path="url(#SVGID_1_)" fill-rule="evenodd" clip-rule="evenodd" fill="#F5FAFD" points="439.727,392.094 
			439.825,392.191 429.185,398.732 429.185,398.634 		"/>
		<polygon clip-path="url(#SVGID_1_)" fill-rule="evenodd" clip-rule="evenodd" fill="#F6FAFD" points="439.727,392.094 
			439.825,392.289 429.282,398.829 429.185,398.732 		"/>
		<polygon clip-path="url(#SVGID_1_)" fill-rule="evenodd" clip-rule="evenodd" fill="#F6FBFD" points="439.825,392.191 
			439.922,392.289 429.282,398.927 429.282,398.829 		"/>
		<polygon clip-path="url(#SVGID_1_)" fill-rule="evenodd" clip-rule="evenodd" fill="#F7FBFD" points="439.825,392.289 
			439.922,392.387 429.38,399.025 429.282,398.927 		"/>
		<polygon clip-path="url(#SVGID_1_)" fill-rule="evenodd" clip-rule="evenodd" fill="#F7FBFE" points="439.922,392.387 
			440.02,392.484 429.477,399.122 429.38,398.927 		"/>
		<polygon clip-path="url(#SVGID_1_)" fill-rule="evenodd" clip-rule="evenodd" fill="#F7FBFE" points="439.922,392.484 
			440.02,392.582 429.477,399.22 429.38,399.025 		"/>
		<polygon clip-path="url(#SVGID_1_)" fill-rule="evenodd" clip-rule="evenodd" fill="#F8FBFE" points="440.02,392.582 
			440.118,392.68 429.575,399.22 429.477,399.122 		"/>
		<polygon clip-path="url(#SVGID_1_)" fill-rule="evenodd" clip-rule="evenodd" fill="#F8FCFE" points="440.118,392.582 
			440.118,392.777 429.575,399.318 429.477,399.22 		"/>
		<polygon clip-path="url(#SVGID_1_)" fill-rule="evenodd" clip-rule="evenodd" fill="#F9FCFE" points="440.118,392.68 
			440.215,392.875 429.673,399.415 429.575,399.318 		"/>
		<polygon clip-path="url(#SVGID_1_)" fill-rule="evenodd" clip-rule="evenodd" fill="#F9FCFE" points="440.215,392.777 
			440.215,392.875 429.673,399.513 429.575,399.415 		"/>
		<polygon clip-path="url(#SVGID_1_)" fill-rule="evenodd" clip-rule="evenodd" fill="#F9FCFE" points="440.215,392.875 
			440.313,392.972 429.77,399.61 429.673,399.513 		"/>
		<polygon clip-path="url(#SVGID_1_)" fill-rule="evenodd" clip-rule="evenodd" fill="#FAFCFE" points="440.313,392.972 
			440.313,393.07 429.77,399.708 429.673,399.513 		"/>
		<polygon clip-path="url(#SVGID_1_)" fill-rule="evenodd" clip-rule="evenodd" fill="#FAFDFE" points="440.313,393.07 
			440.411,393.168 429.868,399.708 429.77,399.61 		"/>
		<polygon clip-path="url(#SVGID_1_)" fill-rule="evenodd" clip-rule="evenodd" fill="#FAFDFE" points="440.411,393.07 
			440.411,393.265 429.868,399.806 429.77,399.708 		"/>
		<polygon clip-path="url(#SVGID_1_)" fill-rule="evenodd" clip-rule="evenodd" fill="#FBFDFE" points="440.411,393.168 
			440.508,393.363 429.966,399.903 429.868,399.806 		"/>
		<polygon clip-path="url(#SVGID_1_)" fill-rule="evenodd" clip-rule="evenodd" fill="#FBFDFE" points="440.508,393.265 
			440.606,393.363 429.966,400.001 429.966,399.903 		"/>
		<polygon clip-path="url(#SVGID_1_)" fill-rule="evenodd" clip-rule="evenodd" fill="#FCFDFE" points="440.508,393.363 
			440.606,393.461 430.063,400.098 429.966,400.001 		"/>
		<polygon clip-path="url(#SVGID_1_)" fill-rule="evenodd" clip-rule="evenodd" fill="#FCFDFE" points="440.606,393.461 
			440.703,393.558 430.063,400.196 430.063,400.001 		"/>
		<polygon clip-path="url(#SVGID_1_)" fill-rule="evenodd" clip-rule="evenodd" fill="#FCFEFF" points="440.606,393.558 
			440.703,393.656 430.161,400.294 430.063,400.098 		"/>
		<polygon clip-path="url(#SVGID_1_)" fill-rule="evenodd" clip-rule="evenodd" fill="#FDFEFF" points="440.703,393.656 
			440.801,393.753 430.161,400.294 430.161,400.196 		"/>
		<polygon clip-path="url(#SVGID_1_)" fill-rule="evenodd" clip-rule="evenodd" fill="#FDFEFF" points="440.703,393.656 
			440.801,393.851 430.258,400.391 430.161,400.294 		"/>
		<polygon clip-path="url(#SVGID_1_)" fill-rule="evenodd" clip-rule="evenodd" fill="#FDFEFF" points="440.801,393.753 
			440.899,393.949 430.258,400.489 430.258,400.391 		"/>
		<polygon clip-path="url(#SVGID_1_)" fill-rule="evenodd" clip-rule="evenodd" fill="#FEFEFF" points="440.801,393.851 
			440.899,393.949 430.356,400.587 430.258,400.489 		"/>
		<polygon clip-path="url(#SVGID_1_)" fill-rule="evenodd" clip-rule="evenodd" fill="#FEFFFF" points="440.899,393.949 
			440.996,394.046 430.454,400.684 430.356,400.587 		"/>
		<polygon clip-path="url(#SVGID_1_)" fill-rule="evenodd" clip-rule="evenodd" fill="#FFFFFF" points="440.899,394.046 
			440.996,394.144 430.454,400.782 430.356,400.587 		"/>
		<polygon clip-path="url(#SVGID_1_)" fill-rule="evenodd" clip-rule="evenodd" fill="#FFFFFF" points="440.996,394.144 
			442.949,397.268 432.406,403.808 430.454,400.684 		"/>
	</g>
</g>
</svg>
