<?xml version="1.0" encoding="utf-8"?>
<!-- Generator: Adobe Illustrator 17.0.0, SVG Export Plug-In . SVG Version: 6.00 Build 0)  -->
<!DOCTYPE svg PUBLIC "-//W3C//DTD SVG 1.1//EN" "http://www.w3.org/Graphics/SVG/1.1/DTD/svg11.dtd">
<svg version="1.1" id="Layer_1" xmlns="http://www.w3.org/2000/svg" xmlns:xlink="http://www.w3.org/1999/xlink" x="0px" y="0px"
	 width="30px" height="30px" viewBox="258.917 381 30 30" enable-background="new 258.917 381 30 30" xml:space="preserve">
<g>
	<g>
		<defs>
			<path id="SVGID_5_" d="M288.917,396c0-8.268-6.614-15-15-15c-8.268,0-15,6.732-15,15c0,8.386,6.732,15,15,15
				C282.302,411,288.917,404.386,288.917,396L288.917,396z"/>
		</defs>
		<clipPath id="SVGID_1_">
			<use xlink:href="#SVGID_5_"  overflow="visible"/>
		</clipPath>
		<path clip-path="url(#SVGID_1_)" fill="none" stroke="#20627B" stroke-width="0.2" stroke-miterlimit="10" d="M260.57,402.85
			c8.504,4.606,17.48,4.724,26.811,0"/>
		<path clip-path="url(#SVGID_1_)" fill="none" stroke="#20627B" stroke-width="0.2" stroke-miterlimit="10" d="M260.57,404.031
			c8.504,4.724,17.48,4.843,26.811,0"/>
		<path clip-path="url(#SVGID_1_)" fill="none" stroke="#20627B" stroke-width="0.2" stroke-miterlimit="10" d="M260.57,405.331
			c8.504,4.724,17.48,4.842,26.811,0"/>
		<path clip-path="url(#SVGID_1_)" fill="none" stroke="#20627B" stroke-width="0.2" stroke-miterlimit="10" d="M260.57,406.63
			c8.504,4.724,17.48,4.843,26.811,0"/>
		<path clip-path="url(#SVGID_1_)" fill="none" stroke="#20627B" stroke-width="0.2" stroke-miterlimit="10" d="M260.57,389.268
			c8.504-4.606,17.48-4.724,26.811,0"/>
		<path clip-path="url(#SVGID_1_)" fill="none" stroke="#20627B" stroke-width="0.2" stroke-miterlimit="10" d="M260.57,387.969
			c8.504-4.606,17.48-4.724,26.811,0"/>
		<path clip-path="url(#SVGID_1_)" fill="none" stroke="#20627B" stroke-width="0.2" stroke-miterlimit="10" d="M260.57,386.669
			c8.504-4.606,17.48-4.724,26.811,0"/>
		<path clip-path="url(#SVGID_1_)" fill="none" stroke="#20627B" stroke-width="0.2" stroke-miterlimit="10" d="M260.57,385.488
			c8.504-4.724,17.48-4.843,26.811,0"/>
		
			<line clip-path="url(#SVGID_1_)" fill="none" stroke="#20627B" stroke-width="0.2" stroke-miterlimit="10" x1="273.917" y1="406.394" x2="273.917" y2="411"/>
		
			<line clip-path="url(#SVGID_1_)" fill="none" stroke="#20627B" stroke-width="0.2" stroke-miterlimit="10" x1="275.334" y1="406.276" x2="275.334" y2="411"/>
		
			<line clip-path="url(#SVGID_1_)" fill="none" stroke="#20627B" stroke-width="0.2" stroke-miterlimit="10" x1="276.633" y1="406.157" x2="276.633" y2="410.882"/>
		
			<line clip-path="url(#SVGID_1_)" fill="none" stroke="#20627B" stroke-width="0.2" stroke-miterlimit="10" x1="278.051" y1="406.039" x2="278.051" y2="410.646"/>
		
			<line clip-path="url(#SVGID_1_)" fill="none" stroke="#20627B" stroke-width="0.2" stroke-miterlimit="10" x1="279.468" y1="405.685" x2="279.468" y2="410.409"/>
		
			<line clip-path="url(#SVGID_1_)" fill="none" stroke="#20627B" stroke-width="0.2" stroke-miterlimit="10" x1="280.767" y1="405.449" x2="280.767" y2="410.055"/>
		
			<line clip-path="url(#SVGID_1_)" fill="none" stroke="#20627B" stroke-width="0.2" stroke-miterlimit="10" x1="282.184" y1="404.976" x2="282.184" y2="409.701"/>
		
			<line clip-path="url(#SVGID_1_)" fill="none" stroke="#20627B" stroke-width="0.2" stroke-miterlimit="10" x1="283.484" y1="404.504" x2="283.484" y2="409.228"/>
		
			<line clip-path="url(#SVGID_1_)" fill="none" stroke="#20627B" stroke-width="0.2" stroke-miterlimit="10" x1="284.901" y1="404.031" x2="284.901" y2="408.756"/>
		
			<line clip-path="url(#SVGID_1_)" fill="none" stroke="#20627B" stroke-width="0.2" stroke-miterlimit="10" x1="286.2" y1="403.441" x2="286.2" y2="408.165"/>
		
			<line clip-path="url(#SVGID_1_)" fill="none" stroke="#20627B" stroke-width="0.2" stroke-miterlimit="10" x1="272.617" y1="406.276" x2="272.617" y2="411"/>
		
			<line clip-path="url(#SVGID_1_)" fill="none" stroke="#20627B" stroke-width="0.2" stroke-miterlimit="10" x1="271.2" y1="406.157" x2="271.2" y2="410.882"/>
		
			<line clip-path="url(#SVGID_1_)" fill="none" stroke="#20627B" stroke-width="0.2" stroke-miterlimit="10" x1="269.901" y1="406.039" x2="269.901" y2="410.646"/>
		
			<line clip-path="url(#SVGID_1_)" fill="none" stroke="#20627B" stroke-width="0.2" stroke-miterlimit="10" x1="268.484" y1="405.685" x2="268.484" y2="410.409"/>
		
			<line clip-path="url(#SVGID_1_)" fill="none" stroke="#20627B" stroke-width="0.2" stroke-miterlimit="10" x1="267.066" y1="405.449" x2="267.066" y2="410.055"/>
		
			<line clip-path="url(#SVGID_1_)" fill="none" stroke="#20627B" stroke-width="0.2" stroke-miterlimit="10" x1="265.767" y1="404.976" x2="265.767" y2="409.701"/>
		
			<line clip-path="url(#SVGID_1_)" fill="none" stroke="#20627B" stroke-width="0.2" stroke-miterlimit="10" x1="264.35" y1="404.504" x2="264.35" y2="409.228"/>
		
			<line clip-path="url(#SVGID_1_)" fill="none" stroke="#20627B" stroke-width="0.2" stroke-miterlimit="10" x1="263.051" y1="404.031" x2="263.051" y2="408.756"/>
		
			<line clip-path="url(#SVGID_1_)" fill="none" stroke="#20627B" stroke-width="0.2" stroke-miterlimit="10" x1="261.633" y1="403.441" x2="261.633" y2="408.165"/>
		
			<line clip-path="url(#SVGID_1_)" fill="none" stroke="#20627B" stroke-width="0.2" stroke-miterlimit="10" x1="273.917" y1="385.724" x2="273.917" y2="381"/>
		
			<line clip-path="url(#SVGID_1_)" fill="none" stroke="#20627B" stroke-width="0.2" stroke-miterlimit="10" x1="275.334" y1="385.843" x2="275.334" y2="381.118"/>
		
			<line clip-path="url(#SVGID_1_)" fill="none" stroke="#20627B" stroke-width="0.2" stroke-miterlimit="10" x1="276.633" y1="385.961" x2="276.633" y2="381.236"/>
		
			<line clip-path="url(#SVGID_1_)" fill="none" stroke="#20627B" stroke-width="0.2" stroke-miterlimit="10" x1="278.051" y1="386.079" x2="278.051" y2="381.354"/>
		
			<line clip-path="url(#SVGID_1_)" fill="none" stroke="#20627B" stroke-width="0.2" stroke-miterlimit="10" x1="279.468" y1="386.315" x2="279.468" y2="381.591"/>
		
			<line clip-path="url(#SVGID_1_)" fill="none" stroke="#20627B" stroke-width="0.2" stroke-miterlimit="10" x1="280.767" y1="386.669" x2="280.767" y2="381.945"/>
		
			<line clip-path="url(#SVGID_1_)" fill="none" stroke="#20627B" stroke-width="0.2" stroke-miterlimit="10" x1="282.184" y1="387.142" x2="282.184" y2="382.417"/>
		
			<line clip-path="url(#SVGID_1_)" fill="none" stroke="#20627B" stroke-width="0.2" stroke-miterlimit="10" x1="283.484" y1="387.496" x2="283.484" y2="382.89"/>
		
			<line clip-path="url(#SVGID_1_)" fill="none" stroke="#20627B" stroke-width="0.2" stroke-miterlimit="10" x1="284.901" y1="388.087" x2="284.901" y2="383.362"/>
		
			<line clip-path="url(#SVGID_1_)" fill="none" stroke="#20627B" stroke-width="0.2" stroke-miterlimit="10" x1="286.2" y1="388.677" x2="286.2" y2="383.953"/>
		
			<line clip-path="url(#SVGID_1_)" fill="none" stroke="#20627B" stroke-width="0.2" stroke-miterlimit="10" x1="272.617" y1="385.843" x2="272.617" y2="381.118"/>
		
			<line clip-path="url(#SVGID_1_)" fill="none" stroke="#20627B" stroke-width="0.2" stroke-miterlimit="10" x1="271.2" y1="385.961" x2="271.2" y2="381.236"/>
		
			<line clip-path="url(#SVGID_1_)" fill="none" stroke="#20627B" stroke-width="0.2" stroke-miterlimit="10" x1="269.901" y1="386.079" x2="269.901" y2="381.354"/>
		
			<line clip-path="url(#SVGID_1_)" fill="none" stroke="#20627B" stroke-width="0.2" stroke-miterlimit="10" x1="268.484" y1="386.315" x2="268.484" y2="381.591"/>
		
			<line clip-path="url(#SVGID_1_)" fill="none" stroke="#20627B" stroke-width="0.2" stroke-miterlimit="10" x1="267.184" y1="386.669" x2="267.184" y2="381.945"/>
		
			<line clip-path="url(#SVGID_1_)" fill="none" stroke="#20627B" stroke-width="0.2" stroke-miterlimit="10" x1="265.767" y1="387.142" x2="265.767" y2="382.417"/>
		
			<line clip-path="url(#SVGID_1_)" fill="none" stroke="#20627B" stroke-width="0.2" stroke-miterlimit="10" x1="264.35" y1="387.496" x2="264.35" y2="382.89"/>
		
			<line clip-path="url(#SVGID_1_)" fill="none" stroke="#20627B" stroke-width="0.2" stroke-miterlimit="10" x1="263.051" y1="388.087" x2="263.051" y2="383.362"/>
		
			<line clip-path="url(#SVGID_1_)" fill="none" stroke="#20627B" stroke-width="0.2" stroke-miterlimit="10" x1="261.633" y1="388.677" x2="261.633" y2="383.953"/>
	</g>
	<path fill="none" stroke="#20627B" stroke-width="0.3" stroke-miterlimit="10" d="M288.917,396c0-8.268-6.614-15-15-15
		c-8.268,0-15,6.732-15,15c0,8.386,6.732,15,15,15C282.302,411,288.917,404.386,288.917,396L288.917,396z"/>
	<path fill="#20627B" d="M263.877,400.252l-0.472-0.118l-0.827,2.008c0,0.118-0.118,0.236-0.118,0.236l0,0c0,0,0-0.118,0-0.236
		l-0.118-2.126l-0.591-0.118l0.354,3.071h0.591l0.709-1.535c0-0.236,0.118-0.472,0.118-0.472l0,0c0,0,0,0.236,0,0.472l0.236,1.772
		h0.591l1.181-2.717l-0.591-0.118l-0.709,2.008c-0.118,0.118-0.118,0.236-0.118,0.236l0,0c0,0,0-0.118,0-0.354L263.877,400.252z
		 M265.531,403.323l0.591,0.118v-1.063l0.591,0.118c0.591,0,0.945-0.354,1.063-0.945c0-0.472-0.354-0.945-0.827-0.945l-1.181-0.118
		L265.531,403.323z M266.24,402.024v-1.063l0.591,0.118c0.236,0,0.472,0.236,0.354,0.472c0,0.354-0.236,0.472-0.472,0.472H266.24z
		 M269.665,403.677h0.472l0.236-2.48l0.945,0.118v-0.472l-2.48-0.118v0.472h0.945L269.665,403.677z M270.964,402.732
		c0,0.591,0.472,1.063,1.181,1.063c0.472,0.118,0.827-0.236,0.827-0.236l-0.236-0.354c0,0-0.236,0.236-0.591,0.236
		c-0.354,0-0.591-0.236-0.591-0.591h1.417c0,0,0-0.118,0-0.236c0-0.472-0.236-0.945-0.827-0.945
		C271.436,401.669,271.082,402.024,270.964,402.732L270.964,402.732z M271.554,402.496c0.118-0.236,0.236-0.472,0.472-0.472
		c0.236,0,0.472,0.236,0.472,0.472H271.554z M273.326,403.087c0,0.709,0.354,0.709,0.709,0.709c0.118,0,0.118,0,0.118,0v-0.472
		c0,0,0,0-0.118,0s-0.118,0-0.118-0.236v-2.244h-0.591V403.087z M274.389,402.732c0,0.591,0.472,1.063,1.181,1.063
		c0.472,0,0.827-0.354,0.827-0.354l-0.236-0.354c0,0-0.236,0.236-0.591,0.236c-0.354,0-0.591-0.118-0.709-0.472h1.535v-0.236
		c0-0.591-0.354-1.063-0.945-0.945C274.743,401.669,274.389,402.142,274.389,402.732L274.389,402.732z M274.98,402.496
		c0-0.236,0.118-0.472,0.472-0.472c0.236,0,0.354,0.118,0.354,0.472H274.98z M277.106,404.031l-0.236,0.354
		c0.236,0.118,0.591,0.236,0.827,0.236c0.472-0.118,1.063-0.354,1.063-1.063l-0.118-2.008h-0.472v0.236l0,0l0,0
		c0,0-0.236-0.236-0.709-0.236c-0.591,0-0.827,0.472-0.827,1.063s0.354,1.063,0.945,1.063c0.354,0,0.472-0.118,0.591-0.354l0,0
		v0.118v0.118c0,0.354-0.236,0.591-0.591,0.591C277.342,404.15,277.106,404.031,277.106,404.031L277.106,404.031z M277.696,403.205
		c-0.354,0-0.472-0.236-0.591-0.591c0-0.354,0.236-0.591,0.472-0.591c0.354,0,0.591,0.118,0.591,0.591
		S277.932,403.205,277.696,403.205L277.696,403.205z M279.35,403.559h0.472l-0.118-0.827c0-0.118,0-0.236,0.118-0.354
		c0-0.354,0.236-0.472,0.472-0.472c0.118,0,0.118,0,0.118,0v-0.472h-0.118c-0.354,0-0.591,0.236-0.591,0.591l0,0
		c0,0,0-0.118,0-0.236l-0.118-0.354l-0.472,0.118L279.35,403.559z M280.649,402.85c0,0.472,0.354,0.709,0.709,0.591
		c0.472,0,0.591-0.354,0.591-0.354h0.118c0,0,0,0,0,0.118v0.118h0.472l-0.118-1.299c-0.118-0.591-0.472-0.827-0.945-0.709
		c-0.591,0-0.827,0.236-0.827,0.236l0.236,0.354c0,0,0.236-0.118,0.591-0.236c0.118,0,0.354,0.118,0.354,0.354l0,0l0,0
		C281.476,402.142,280.531,402.26,280.649,402.85L280.649,402.85z M281.121,402.85c0-0.354,0.472-0.354,0.709-0.472h0.118v0.118
		c0,0.236-0.236,0.591-0.472,0.591C281.24,403.087,281.121,402.969,281.121,402.85L281.121,402.85z M283.011,403.205h0.591
		l-0.118-0.945c0-0.118,0-0.236,0-0.236c0-0.354,0.118-0.591,0.354-0.591c0.236,0,0.354,0.118,0.354,0.354l0.236,1.299l0.472-0.118
		l-0.118-0.945c0-0.118,0-0.118,0-0.236c0-0.236,0.118-0.472,0.354-0.591c0.354,0,0.354,0.236,0.354,0.472l0.236,1.181l0.472-0.118
		l-0.118-1.299c-0.118-0.472-0.354-0.709-0.827-0.709c-0.354,0.118-0.591,0.354-0.709,0.591l0,0
		c-0.118-0.354-0.354-0.472-0.591-0.354c-0.354,0-0.591,0.236-0.591,0.472l0,0c0,0,0,0-0.118-0.118v-0.236l-0.472,0.118
		L283.011,403.205z"/>
	<path fill-rule="evenodd" clip-rule="evenodd" fill="#464342" d="M262.696,393.638c0,1.417,0.827,2.717,2.126,3.425l-1.772-4.961
		C262.814,392.575,262.696,393.047,262.696,393.638L262.696,393.638z"/>
	<path fill-rule="evenodd" clip-rule="evenodd" fill="#464342" d="M268.956,393.402c0-0.472-0.118-0.709-0.236-1.063
		c-0.236-0.236-0.354-0.472-0.354-0.827s0.236-0.709,0.591-0.709l0,0c-0.591-0.591-1.535-0.945-2.48-0.945
		c-1.299,0-2.48,0.709-3.189,1.654c0.118,0,0.236,0,0.236,0c0.472,0,1.063,0,1.063,0c0.118,0,0.236,0.236,0,0.354
		c0,0-0.236,0-0.472,0l1.417,4.016l0.827-2.48l-0.591-1.535c-0.236,0-0.354,0-0.354,0c-0.236-0.118-0.236-0.354,0-0.354
		c0,0,0.591,0,0.945,0c0.472,0,1.063,0,1.063,0c0.118,0,0.236,0.236,0,0.354c0,0-0.236,0-0.472,0l1.417,4.016l0.354-1.181
		C268.838,394.11,268.956,393.756,268.956,393.402L268.956,393.402z"/>
	<path fill-rule="evenodd" clip-rule="evenodd" fill="#464342" d="M266.476,393.992l-1.063,3.189
		c0.354,0.118,0.709,0.236,1.063,0.236c0.472,0,0.827-0.118,1.181-0.236c0,0,0,0,0-0.118L266.476,393.992z"/>
	<path fill-rule="evenodd" clip-rule="evenodd" fill="#464342" d="M269.783,391.748c0,0.236,0,0.354,0,0.472
		c0,0.354-0.118,0.827-0.236,1.299l-1.181,3.307c1.063-0.591,1.89-1.772,1.89-3.189
		C270.255,392.929,270.019,392.339,269.783,391.748L269.783,391.748z"/>
	<path fill-rule="evenodd" clip-rule="evenodd" fill="#464342" d="M266.476,389.268c-2.48,0-4.37,1.89-4.37,4.37
		c0,2.362,1.89,4.37,4.37,4.37c2.362,0,4.37-2.008,4.37-4.37C270.846,391.157,268.838,389.268,266.476,389.268L266.476,389.268z
		 M266.476,397.772c-2.362,0-4.252-1.89-4.252-4.134c0-2.362,1.89-4.252,4.252-4.252c2.244,0,4.134,1.89,4.134,4.252
		C270.61,395.882,268.72,397.772,266.476,397.772L266.476,397.772z"/>
	<g>
		<defs>
			<path id="SVGID_7_" d="M285.846,393.638c0-2.48-2.008-4.37-4.37-4.37c-2.48,0-4.37,1.89-4.37,4.37c0,2.362,1.89,4.37,4.37,4.37
				C283.838,398.008,285.846,396,285.846,393.638L285.846,393.638z"/>
		</defs>
		<clipPath id="SVGID_2_">
			<use xlink:href="#SVGID_7_"  overflow="visible"/>
		</clipPath>
		<polygon clip-path="url(#SVGID_2_)" fill-rule="evenodd" clip-rule="evenodd" fill="#37AEE2" points="287.972,391.039 
			287.027,393.283 277.814,389.268 278.877,387.024 		"/>
		<polygon clip-path="url(#SVGID_2_)" fill-rule="evenodd" clip-rule="evenodd" fill="#36ADE1" points="287.027,393.165 
			287.027,393.402 277.814,389.386 277.932,389.268 		"/>
		<polygon clip-path="url(#SVGID_2_)" fill-rule="evenodd" clip-rule="evenodd" fill="#36ADE1" points="287.027,393.283 
			286.909,393.52 277.814,389.504 277.814,389.386 		"/>
		<polygon clip-path="url(#SVGID_2_)" fill-rule="evenodd" clip-rule="evenodd" fill="#35ACE0" points="287.027,393.402 
			286.909,393.52 277.696,389.622 277.814,389.504 		"/>
		<polygon clip-path="url(#SVGID_2_)" fill-rule="evenodd" clip-rule="evenodd" fill="#35ACE0" points="286.909,393.52 
			286.909,393.638 277.696,389.74 277.696,389.622 		"/>
		<polygon clip-path="url(#SVGID_2_)" fill-rule="evenodd" clip-rule="evenodd" fill="#34ABDF" points="286.909,393.638 
			286.791,393.756 277.578,389.858 277.696,389.74 		"/>
		<polygon clip-path="url(#SVGID_2_)" fill-rule="evenodd" clip-rule="evenodd" fill="#34ABDF" points="286.791,393.756 
			286.791,393.874 277.578,389.976 277.696,389.858 		"/>
		<polygon clip-path="url(#SVGID_2_)" fill-rule="evenodd" clip-rule="evenodd" fill="#33AADE" points="286.791,393.874 
			286.673,393.992 277.578,390.094 277.578,389.858 		"/>
		<polygon clip-path="url(#SVGID_2_)" fill-rule="evenodd" clip-rule="evenodd" fill="#33AADD" points="286.791,393.992 
			286.673,394.11 277.46,390.213 277.578,389.976 		"/>
		<polygon clip-path="url(#SVGID_2_)" fill-rule="evenodd" clip-rule="evenodd" fill="#32A9DD" points="286.673,394.11 
			286.673,394.228 277.46,390.331 277.46,390.094 		"/>
		<polygon clip-path="url(#SVGID_2_)" fill-rule="evenodd" clip-rule="evenodd" fill="#32A9DC" points="286.673,394.228 
			286.554,394.346 277.46,390.449 277.46,390.213 		"/>
		<polygon clip-path="url(#SVGID_2_)" fill-rule="evenodd" clip-rule="evenodd" fill="#31A8DC" points="286.554,394.228 
			286.554,394.465 277.342,390.567 277.46,390.331 		"/>
		<polygon clip-path="url(#SVGID_2_)" fill-rule="evenodd" clip-rule="evenodd" fill="#30A8DB" points="286.554,394.346 
			286.436,394.583 277.342,390.567 277.342,390.449 		"/>
		<polygon clip-path="url(#SVGID_2_)" fill-rule="evenodd" clip-rule="evenodd" fill="#30A7DB" points="286.554,394.465 
			286.436,394.701 277.224,390.685 277.342,390.567 		"/>
		<polygon clip-path="url(#SVGID_2_)" fill-rule="evenodd" clip-rule="evenodd" fill="#2FA7DA" points="286.436,394.583 
			286.436,394.819 277.224,390.803 277.342,390.685 		"/>
		<polygon clip-path="url(#SVGID_2_)" fill-rule="evenodd" clip-rule="evenodd" fill="#2FA6DA" points="286.436,394.701 
			286.318,394.937 277.224,390.921 277.224,390.803 		"/>
		<polygon clip-path="url(#SVGID_2_)" fill-rule="evenodd" clip-rule="evenodd" fill="#2EA6D9" points="286.318,394.819 
			286.318,394.937 277.106,391.039 277.224,390.921 		"/>
		<polygon clip-path="url(#SVGID_2_)" fill-rule="evenodd" clip-rule="evenodd" fill="#2EA5D8" points="286.318,394.937 
			286.2,395.055 277.106,391.157 277.106,391.039 		"/>
		<polygon clip-path="url(#SVGID_2_)" fill-rule="evenodd" clip-rule="evenodd" fill="#2DA5D8" points="286.318,395.055 
			286.2,395.173 276.988,391.276 277.106,391.157 		"/>
		<polygon clip-path="url(#SVGID_2_)" fill-rule="evenodd" clip-rule="evenodd" fill="#2DA4D7" points="286.2,395.173 
			286.2,395.291 276.988,391.394 277.106,391.276 		"/>
		<polygon clip-path="url(#SVGID_2_)" fill-rule="evenodd" clip-rule="evenodd" fill="#2CA4D7" points="286.2,395.291 
			286.082,395.409 276.988,391.512 276.988,391.276 		"/>
		<polygon clip-path="url(#SVGID_2_)" fill-rule="evenodd" clip-rule="evenodd" fill="#2CA3D6" points="286.082,395.409 
			286.082,395.528 276.869,391.63 276.988,391.394 		"/>
		<polygon clip-path="url(#SVGID_2_)" fill-rule="evenodd" clip-rule="evenodd" fill="#2BA3D6" points="286.082,395.528 
			286.082,395.646 276.869,391.748 276.869,391.512 		"/>
		<polygon clip-path="url(#SVGID_2_)" fill-rule="evenodd" clip-rule="evenodd" fill="#2BA2D5" points="286.082,395.646 
			285.964,395.764 276.751,391.866 276.869,391.63 		"/>
		<polygon clip-path="url(#SVGID_2_)" fill-rule="evenodd" clip-rule="evenodd" fill="#2AA1D4" points="285.964,395.646 
			285.964,395.882 276.751,391.984 276.869,391.748 		"/>
		<polygon clip-path="url(#SVGID_2_)" fill-rule="evenodd" clip-rule="evenodd" fill="#29A1D4" points="285.964,395.764 
			285.846,396 276.751,391.984 276.751,391.866 		"/>
		<polygon clip-path="url(#SVGID_2_)" fill-rule="evenodd" clip-rule="evenodd" fill="#29A0D3" points="285.964,395.882 
			285.846,396.118 276.633,392.102 276.751,391.984 		"/>
		<polygon clip-path="url(#SVGID_2_)" fill-rule="evenodd" clip-rule="evenodd" fill="#28A0D3" points="285.846,396 
			285.846,396.236 276.633,392.22 276.633,392.102 		"/>
		<polygon clip-path="url(#SVGID_2_)" fill-rule="evenodd" clip-rule="evenodd" fill="#289FD2" points="285.846,396.118 
			285.728,396.354 276.515,392.339 276.633,392.22 		"/>
		<polygon clip-path="url(#SVGID_2_)" fill-rule="evenodd" clip-rule="evenodd" fill="#279FD2" points="285.728,396.236 
			285.728,396.354 276.515,392.457 276.633,392.339 		"/>
		<polygon clip-path="url(#SVGID_2_)" fill-rule="evenodd" clip-rule="evenodd" fill="#279ED1" points="285.728,396.354 
			285.61,396.472 276.515,392.575 276.515,392.457 		"/>
		<polygon clip-path="url(#SVGID_2_)" fill-rule="evenodd" clip-rule="evenodd" fill="#269ED0" points="285.728,396.472 
			285.61,396.591 276.397,392.693 276.515,392.575 		"/>
		<polygon clip-path="url(#SVGID_2_)" fill-rule="evenodd" clip-rule="evenodd" fill="#269DD0" points="285.61,396.591 
			285.61,396.709 276.397,392.811 276.397,392.693 		"/>
		<polygon clip-path="url(#SVGID_2_)" fill-rule="evenodd" clip-rule="evenodd" fill="#259DCF" points="285.61,396.709 
			285.491,396.827 276.279,392.929 276.397,392.693 		"/>
		<polygon clip-path="url(#SVGID_2_)" fill-rule="evenodd" clip-rule="evenodd" fill="#259CCF" points="285.491,396.827 
			285.491,396.945 276.279,393.047 276.397,392.811 		"/>
		<polygon clip-path="url(#SVGID_2_)" fill-rule="evenodd" clip-rule="evenodd" fill="#249CCE" points="285.491,396.945 
			285.373,397.063 276.279,393.165 276.279,392.929 		"/>
		<polygon clip-path="url(#SVGID_2_)" fill-rule="evenodd" clip-rule="evenodd" fill="#239BCE" points="285.491,397.063 
			285.373,397.181 276.161,393.283 276.279,393.047 		"/>
		<polygon clip-path="url(#SVGID_2_)" fill-rule="evenodd" clip-rule="evenodd" fill="#239BCD" points="285.373,397.063 
			285.373,397.299 276.161,393.402 276.161,393.165 		"/>
		<polygon clip-path="url(#SVGID_2_)" fill-rule="evenodd" clip-rule="evenodd" fill="#229ACD" points="285.373,397.181 
			285.255,397.417 276.043,393.402 276.161,393.283 		"/>
		<polygon clip-path="url(#SVGID_2_)" fill-rule="evenodd" clip-rule="evenodd" fill="#229ACC" points="285.255,397.299 
			285.255,397.535 276.043,393.52 276.161,393.402 		"/>
		<polygon clip-path="url(#SVGID_2_)" fill-rule="evenodd" clip-rule="evenodd" fill="#2199CB" points="285.255,397.417 
			285.137,397.654 276.043,393.638 276.043,393.52 		"/>
		<polygon clip-path="url(#SVGID_2_)" fill-rule="evenodd" clip-rule="evenodd" fill="#2199CB" points="285.255,397.535 
			285.137,397.772 275.925,393.756 276.043,393.638 		"/>
		<polygon clip-path="url(#SVGID_2_)" fill-rule="evenodd" clip-rule="evenodd" fill="#2098CA" points="285.137,397.654 
			285.137,397.89 275.925,393.874 275.925,393.756 		"/>
		<polygon clip-path="url(#SVGID_2_)" fill-rule="evenodd" clip-rule="evenodd" fill="#2098CA" points="285.137,397.772 
			285.019,397.89 275.806,393.992 275.925,393.874 		"/>
		<polygon clip-path="url(#SVGID_2_)" fill-rule="evenodd" clip-rule="evenodd" fill="#1F97C9" points="285.019,397.89 
			285.019,398.008 275.806,394.11 275.925,393.992 		"/>
		<polygon clip-path="url(#SVGID_2_)" fill-rule="evenodd" clip-rule="evenodd" fill="#1F97C9" points="285.019,398.008 
			284.901,398.126 275.806,394.228 275.806,394.11 		"/>
		<polygon clip-path="url(#SVGID_2_)" fill-rule="evenodd" clip-rule="evenodd" fill="#1E96C8" points="285.019,398.126 
			284.074,400.134 274.862,396.236 275.806,394.11 		"/>
	</g>
	<path fill-rule="evenodd" clip-rule="evenodd" fill="#C8DAEA" d="M280.649,395.646c-0.118,0-0.118-0.118-0.118-0.236l-0.472-1.299
		l3.189-2.008 M280.649,395.646L280.649,395.646L280.649,395.646z"/>
	<path fill-rule="evenodd" clip-rule="evenodd" fill="#A9C9DD" d="M280.649,395.646c0.118,0,0.118-0.118,0.236-0.118l0.591-0.591
		l-0.709-0.472 M280.649,395.646L280.649,395.646L280.649,395.646z"/>
	<g>
		<defs>
			<path id="SVGID_9_" d="M280.767,394.465l1.772,1.299c0.118,0.118,0.354,0.118,0.354-0.118l0.709-3.425
				c0.118-0.236-0.118-0.472-0.236-0.354l-4.252,1.654c-0.354,0.118-0.354,0.236-0.118,0.354l1.063,0.354l2.598-1.654
				c0.118,0,0.236,0,0.118,0.118L280.767,394.465z M280.767,394.465L280.767,394.465L280.767,394.465z"/>
		</defs>
		<clipPath id="SVGID_4_">
			<use xlink:href="#SVGID_9_"  overflow="visible"/>
		</clipPath>
		<polygon clip-path="url(#SVGID_4_)" fill-rule="evenodd" clip-rule="evenodd" fill="#EFF7FC" points="283.129,390.921 
			283.602,391.748 279.232,394.465 278.759,393.638 		"/>
		<polygon clip-path="url(#SVGID_4_)" fill-rule="evenodd" clip-rule="evenodd" fill="#F0F8FC" points="283.602,391.748 
			283.602,391.866 279.232,394.583 279.232,394.465 		"/>
		<polygon clip-path="url(#SVGID_4_)" fill-rule="evenodd" clip-rule="evenodd" fill="#F1F8FC" points="283.602,391.748 
			283.72,391.984 279.35,394.701 279.232,394.465 		"/>
		<polygon clip-path="url(#SVGID_4_)" fill-rule="evenodd" clip-rule="evenodd" fill="#F2F9FD" points="283.72,391.866 
			283.72,391.984 279.35,394.819 279.35,394.583 		"/>
		<polygon clip-path="url(#SVGID_4_)" fill-rule="evenodd" clip-rule="evenodd" fill="#F4F9FD" points="283.72,391.984 
			283.838,392.102 279.468,394.819 279.35,394.701 		"/>
		<polygon clip-path="url(#SVGID_4_)" fill-rule="evenodd" clip-rule="evenodd" fill="#F5FAFD" points="283.838,392.102 
			283.838,392.22 279.468,394.937 279.468,394.819 		"/>
		<polygon clip-path="url(#SVGID_4_)" fill-rule="evenodd" clip-rule="evenodd" fill="#F6FAFD" points="283.838,392.22 
			283.956,392.339 279.586,395.055 279.468,394.937 		"/>
		<polygon clip-path="url(#SVGID_4_)" fill-rule="evenodd" clip-rule="evenodd" fill="#F7FBFE" points="283.956,392.339 
			283.956,392.457 279.586,395.173 279.586,395.055 		"/>
		<polygon clip-path="url(#SVGID_4_)" fill-rule="evenodd" clip-rule="evenodd" fill="#F8FCFE" points="283.956,392.339 
			284.074,392.575 279.704,395.291 279.586,395.055 		"/>
		<polygon clip-path="url(#SVGID_4_)" fill-rule="evenodd" clip-rule="evenodd" fill="#F9FCFE" points="284.074,392.457 
			284.074,392.575 279.704,395.291 279.704,395.173 		"/>
		<polygon clip-path="url(#SVGID_4_)" fill-rule="evenodd" clip-rule="evenodd" fill="#FAFDFE" points="284.074,392.575 
			284.192,392.693 279.822,395.409 279.704,395.291 		"/>
		<polygon clip-path="url(#SVGID_4_)" fill-rule="evenodd" clip-rule="evenodd" fill="#FCFDFE" points="284.192,392.693 
			284.192,392.811 279.94,395.528 279.822,395.409 		"/>
		<polygon clip-path="url(#SVGID_4_)" fill-rule="evenodd" clip-rule="evenodd" fill="#FDFEFF" points="284.192,392.811 
			284.31,392.929 279.94,395.646 279.822,395.528 		"/>
		<polygon clip-path="url(#SVGID_4_)" fill-rule="evenodd" clip-rule="evenodd" fill="#FEFEFF" points="284.31,392.811 
			284.31,393.047 280.058,395.764 279.94,395.646 		"/>
		<polygon clip-path="url(#SVGID_4_)" fill-rule="evenodd" clip-rule="evenodd" fill="#FFFFFF" points="284.31,392.929 
			285.255,394.346 280.885,397.063 279.94,395.646 		"/>
	</g>
</g>
</svg>
