<?xml version="1.0" encoding="utf-8"?>
<!-- Generator: Adobe Illustrator 17.0.0, SVG Export Plug-In . SVG Version: 6.00 Build 0)  -->
<!DOCTYPE svg PUBLIC "-//W3C//DTD SVG 1.1//EN" "http://www.w3.org/Graphics/SVG/1.1/DTD/svg11.dtd">
<svg version="1.1" id="Layer_1" xmlns="http://www.w3.org/2000/svg" xmlns:xlink="http://www.w3.org/1999/xlink" x="0px" y="0px"
	 width="16px" height="16px" viewBox="467.313 388 16 16" enable-background="new 467.313 388 16 16" xml:space="preserve">
<g>
	<path fill="#FFFFFF" stroke="#20627B" stroke-width="0.1" stroke-miterlimit="10" d="M483.313,396c0-4.409-3.528-8-8-8
		c-4.409,0-8,3.591-8,8c0,4.472,3.591,8,8,8C479.785,404,483.313,400.472,483.313,396L483.313,396z"/>
	<g>
		<defs>
			<path id="SVGID_11_" d="M483.313,396c0-4.409-3.528-8-8-8c-4.409,0-8,3.591-8,8c0,4.472,3.591,8,8,8
				C479.785,404,483.313,400.472,483.313,396L483.313,396z"/>
		</defs>
		<use xlink:href="#SVGID_11_"  overflow="visible" fill-rule="evenodd" clip-rule="evenodd" fill="#A1DEF9"/>
		<clipPath id="SVGID_1_">
			<use xlink:href="#SVGID_11_"  overflow="visible"/>
		</clipPath>
		<path clip-path="url(#SVGID_1_)" fill="none" stroke="#20627B" stroke-width="0.1" stroke-miterlimit="10" d="M468.194,399.654
			c4.535,2.457,9.323,2.52,14.299,0"/>
		<path clip-path="url(#SVGID_1_)" fill="none" stroke="#20627B" stroke-width="0.1" stroke-miterlimit="10" d="M468.194,400.283
			c4.535,2.52,9.323,2.583,14.299,0"/>
		<path clip-path="url(#SVGID_1_)" fill="none" stroke="#20627B" stroke-width="0.1" stroke-miterlimit="10" d="M468.194,400.976
			c4.535,2.52,9.323,2.583,14.299,0"/>
		<path clip-path="url(#SVGID_1_)" fill="none" stroke="#20627B" stroke-width="0.1" stroke-miterlimit="10" d="M468.194,401.669
			c4.535,2.52,9.323,2.583,14.299,0"/>
		<path clip-path="url(#SVGID_1_)" fill="none" stroke="#20627B" stroke-width="0.1" stroke-miterlimit="10" d="M468.194,392.409
			c4.535-2.457,9.323-2.52,14.299,0"/>
		<path clip-path="url(#SVGID_1_)" fill="none" stroke="#20627B" stroke-width="0.1" stroke-miterlimit="10" d="M468.194,391.717
			c4.535-2.457,9.323-2.52,14.299,0"/>
		<path clip-path="url(#SVGID_1_)" fill="none" stroke="#20627B" stroke-width="0.1" stroke-miterlimit="10" d="M468.194,391.024
			c4.535-2.457,9.323-2.52,14.299,0"/>
		<path clip-path="url(#SVGID_1_)" fill="none" stroke="#20627B" stroke-width="0.1" stroke-miterlimit="10" d="M468.194,390.394
			c4.535-2.52,9.323-2.583,14.299,0"/>
		
			<line clip-path="url(#SVGID_1_)" fill="none" stroke="#20627B" stroke-width="0.1" stroke-miterlimit="10" x1="475.313" y1="401.543" x2="475.313" y2="404"/>
		
			<line clip-path="url(#SVGID_1_)" fill="none" stroke="#20627B" stroke-width="0.1" stroke-miterlimit="10" x1="476.068" y1="401.48" x2="476.068" y2="404"/>
		
			<line clip-path="url(#SVGID_1_)" fill="none" stroke="#20627B" stroke-width="0.1" stroke-miterlimit="10" x1="476.761" y1="401.417" x2="476.761" y2="403.937"/>
		
			<line clip-path="url(#SVGID_1_)" fill="none" stroke="#20627B" stroke-width="0.1" stroke-miterlimit="10" x1="477.517" y1="401.354" x2="477.517" y2="403.811"/>
		
			<line clip-path="url(#SVGID_1_)" fill="none" stroke="#20627B" stroke-width="0.1" stroke-miterlimit="10" x1="478.273" y1="401.165" x2="478.273" y2="403.685"/>
		
			<line clip-path="url(#SVGID_1_)" fill="none" stroke="#20627B" stroke-width="0.1" stroke-miterlimit="10" x1="478.966" y1="401.039" x2="478.966" y2="403.496"/>
		
			<line clip-path="url(#SVGID_1_)" fill="none" stroke="#20627B" stroke-width="0.1" stroke-miterlimit="10" x1="479.722" y1="400.787" x2="479.722" y2="403.307"/>
		
			<line clip-path="url(#SVGID_1_)" fill="none" stroke="#20627B" stroke-width="0.1" stroke-miterlimit="10" x1="480.415" y1="400.535" x2="480.415" y2="403.055"/>
		
			<line clip-path="url(#SVGID_1_)" fill="none" stroke="#20627B" stroke-width="0.1" stroke-miterlimit="10" x1="481.171" y1="400.283" x2="481.171" y2="402.803"/>
		
			<line clip-path="url(#SVGID_1_)" fill="none" stroke="#20627B" stroke-width="0.1" stroke-miterlimit="10" x1="481.864" y1="399.969" x2="481.864" y2="402.488"/>
		
			<line clip-path="url(#SVGID_1_)" fill="none" stroke="#20627B" stroke-width="0.1" stroke-miterlimit="10" x1="474.62" y1="401.48" x2="474.62" y2="404"/>
		
			<line clip-path="url(#SVGID_1_)" fill="none" stroke="#20627B" stroke-width="0.1" stroke-miterlimit="10" x1="473.864" y1="401.417" x2="473.864" y2="403.937"/>
		
			<line clip-path="url(#SVGID_1_)" fill="none" stroke="#20627B" stroke-width="0.1" stroke-miterlimit="10" x1="473.171" y1="401.354" x2="473.171" y2="403.811"/>
		
			<line clip-path="url(#SVGID_1_)" fill="none" stroke="#20627B" stroke-width="0.1" stroke-miterlimit="10" x1="472.415" y1="401.165" x2="472.415" y2="403.685"/>
		
			<line clip-path="url(#SVGID_1_)" fill="none" stroke="#20627B" stroke-width="0.1" stroke-miterlimit="10" x1="471.659" y1="401.039" x2="471.659" y2="403.496"/>
		
			<line clip-path="url(#SVGID_1_)" fill="none" stroke="#20627B" stroke-width="0.1" stroke-miterlimit="10" x1="470.966" y1="400.787" x2="470.966" y2="403.307"/>
		
			<line clip-path="url(#SVGID_1_)" fill="none" stroke="#20627B" stroke-width="0.1" stroke-miterlimit="10" x1="470.21" y1="400.535" x2="470.21" y2="403.055"/>
		
			<line clip-path="url(#SVGID_1_)" fill="none" stroke="#20627B" stroke-width="0.1" stroke-miterlimit="10" x1="469.517" y1="400.283" x2="469.517" y2="402.803"/>
		
			<line clip-path="url(#SVGID_1_)" fill="none" stroke="#20627B" stroke-width="0.1" stroke-miterlimit="10" x1="468.761" y1="399.969" x2="468.761" y2="402.488"/>
		
			<line clip-path="url(#SVGID_1_)" fill="none" stroke="#20627B" stroke-width="0.1" stroke-miterlimit="10" x1="475.313" y1="390.52" x2="475.313" y2="388"/>
		
			<line clip-path="url(#SVGID_1_)" fill="none" stroke="#20627B" stroke-width="0.1" stroke-miterlimit="10" x1="476.068" y1="390.583" x2="476.068" y2="388.063"/>
		
			<line clip-path="url(#SVGID_1_)" fill="none" stroke="#20627B" stroke-width="0.1" stroke-miterlimit="10" x1="476.761" y1="390.646" x2="476.761" y2="388.126"/>
		
			<line clip-path="url(#SVGID_1_)" fill="none" stroke="#20627B" stroke-width="0.1" stroke-miterlimit="10" x1="477.517" y1="390.709" x2="477.517" y2="388.189"/>
		
			<line clip-path="url(#SVGID_1_)" fill="none" stroke="#20627B" stroke-width="0.1" stroke-miterlimit="10" x1="478.273" y1="390.835" x2="478.273" y2="388.315"/>
		
			<line clip-path="url(#SVGID_1_)" fill="none" stroke="#20627B" stroke-width="0.1" stroke-miterlimit="10" x1="478.966" y1="391.024" x2="478.966" y2="388.504"/>
		
			<line clip-path="url(#SVGID_1_)" fill="none" stroke="#20627B" stroke-width="0.1" stroke-miterlimit="10" x1="479.722" y1="391.276" x2="479.722" y2="388.756"/>
		
			<line clip-path="url(#SVGID_1_)" fill="none" stroke="#20627B" stroke-width="0.1" stroke-miterlimit="10" x1="480.415" y1="391.465" x2="480.415" y2="389.008"/>
		
			<line clip-path="url(#SVGID_1_)" fill="none" stroke="#20627B" stroke-width="0.1" stroke-miterlimit="10" x1="481.171" y1="391.78" x2="481.171" y2="389.26"/>
		
			<line clip-path="url(#SVGID_1_)" fill="none" stroke="#20627B" stroke-width="0.1" stroke-miterlimit="10" x1="481.864" y1="392.094" x2="481.864" y2="389.575"/>
		
			<line clip-path="url(#SVGID_1_)" fill="none" stroke="#20627B" stroke-width="0.1" stroke-miterlimit="10" x1="474.62" y1="390.583" x2="474.62" y2="388.063"/>
		
			<line clip-path="url(#SVGID_1_)" fill="none" stroke="#20627B" stroke-width="0.1" stroke-miterlimit="10" x1="473.864" y1="390.646" x2="473.864" y2="388.126"/>
		
			<line clip-path="url(#SVGID_1_)" fill="none" stroke="#20627B" stroke-width="0.1" stroke-miterlimit="10" x1="473.171" y1="390.709" x2="473.171" y2="388.189"/>
		
			<line clip-path="url(#SVGID_1_)" fill="none" stroke="#20627B" stroke-width="0.1" stroke-miterlimit="10" x1="472.415" y1="390.835" x2="472.415" y2="388.315"/>
		
			<line clip-path="url(#SVGID_1_)" fill="none" stroke="#20627B" stroke-width="0.1" stroke-miterlimit="10" x1="471.722" y1="391.024" x2="471.722" y2="388.504"/>
		
			<line clip-path="url(#SVGID_1_)" fill="none" stroke="#20627B" stroke-width="0.1" stroke-miterlimit="10" x1="470.966" y1="391.276" x2="470.966" y2="388.756"/>
		
			<line clip-path="url(#SVGID_1_)" fill="none" stroke="#20627B" stroke-width="0.1" stroke-miterlimit="10" x1="470.21" y1="391.465" x2="470.21" y2="389.008"/>
		
			<line clip-path="url(#SVGID_1_)" fill="none" stroke="#20627B" stroke-width="0.1" stroke-miterlimit="10" x1="469.517" y1="391.78" x2="469.517" y2="389.26"/>
		
			<line clip-path="url(#SVGID_1_)" fill="none" stroke="#20627B" stroke-width="0.1" stroke-miterlimit="10" x1="468.761" y1="392.094" x2="468.761" y2="389.575"/>
		
			<use xlink:href="#SVGID_11_"  overflow="visible" fill-rule="evenodd" clip-rule="evenodd" fill="none" stroke="#20627B" stroke-width="0.15" stroke-miterlimit="10"/>
	</g>
	<path fill="#20627B" d="M469.958,398.268l-0.252-0.063l-0.441,1.071c0,0.063-0.063,0.126-0.063,0.126l0,0c0,0,0-0.063,0-0.126
		l-0.063-1.134l-0.315-0.063l0.189,1.638h0.315l0.378-0.819c0-0.126,0.063-0.252,0.063-0.252l0,0c0,0,0,0.126,0,0.252l0.126,0.945
		h0.315l0.63-1.449l-0.315-0.063l-0.378,1.071c-0.063,0.063-0.063,0.126-0.063,0.126l0,0c0,0,0-0.063,0-0.189L469.958,398.268z
		 M470.84,399.906l0.315,0.063v-0.567l0.315,0.063c0.315,0,0.504-0.189,0.567-0.504c0-0.252-0.189-0.504-0.441-0.504l-0.63-0.063
		L470.84,399.906z M471.218,399.213v-0.567l0.315,0.063c0.126,0,0.252,0.126,0.189,0.252c0,0.189-0.126,0.252-0.252,0.252H471.218z
		 M473.045,400.094h0.252l0.126-1.323l0.504,0.063v-0.252l-1.323-0.063v0.252h0.504L473.045,400.094z M473.738,399.591
		c0,0.315,0.252,0.567,0.63,0.567c0.252,0.063,0.441-0.126,0.441-0.126l-0.126-0.189c0,0-0.126,0.126-0.315,0.126
		s-0.315-0.126-0.315-0.315h0.756c0,0,0-0.063,0-0.126c0-0.252-0.126-0.504-0.441-0.504
		C473.99,399.024,473.801,399.213,473.738,399.591L473.738,399.591z M474.053,399.465c0.063-0.126,0.126-0.252,0.252-0.252
		s0.252,0.126,0.252,0.252H474.053z M474.998,399.78c0,0.378,0.189,0.378,0.378,0.378c0.063,0,0.063,0,0.063,0v-0.252
		c0,0,0,0-0.063,0s-0.063,0-0.063-0.126v-1.197h-0.315V399.78z M475.564,399.591c0,0.315,0.252,0.567,0.63,0.567
		c0.252,0,0.441-0.189,0.441-0.189l-0.126-0.189c0,0-0.126,0.126-0.315,0.126c-0.189,0-0.315-0.063-0.378-0.252h0.819v-0.126
		c0-0.315-0.189-0.567-0.504-0.504C475.753,399.024,475.564,399.276,475.564,399.591L475.564,399.591z M475.879,399.465
		c0-0.126,0.063-0.252,0.252-0.252c0.126,0,0.189,0.063,0.189,0.252H475.879z M477.013,400.283l-0.126,0.189
		c0.126,0.063,0.315,0.126,0.441,0.126c0.252-0.063,0.567-0.189,0.567-0.567l-0.063-1.071h-0.252v0.126l0,0l0,0
		c0,0-0.126-0.126-0.378-0.126c-0.315,0-0.441,0.252-0.441,0.567s0.189,0.567,0.504,0.567c0.189,0,0.252-0.063,0.315-0.189l0,0
		v0.063v0.063c0,0.189-0.126,0.315-0.315,0.315C477.139,400.346,477.013,400.283,477.013,400.283L477.013,400.283z M477.328,399.843
		c-0.189,0-0.252-0.126-0.315-0.315c0-0.189,0.126-0.315,0.252-0.315c0.189,0,0.315,0.063,0.315,0.315
		C477.58,399.78,477.454,399.843,477.328,399.843L477.328,399.843z M478.21,400.031h0.252l-0.063-0.441c0-0.063,0-0.126,0.063-0.189
		c0-0.189,0.126-0.252,0.252-0.252c0.063,0,0.063,0,0.063,0v-0.252h-0.063c-0.189,0-0.315,0.126-0.315,0.315l0,0
		c0,0,0-0.063,0-0.126l-0.063-0.189l-0.252,0.063L478.21,400.031z M478.903,399.654c0,0.252,0.189,0.378,0.378,0.315
		c0.252,0,0.315-0.189,0.315-0.189h0.063c0,0,0,0,0,0.063v0.063h0.252l-0.063-0.693c-0.063-0.315-0.252-0.441-0.504-0.378
		c-0.315,0-0.441,0.126-0.441,0.126l0.126,0.189c0,0,0.126-0.063,0.315-0.126c0.063,0,0.189,0.063,0.189,0.189l0,0l0,0
		C479.344,399.276,478.84,399.339,478.903,399.654L478.903,399.654z M479.155,399.654c0-0.189,0.252-0.189,0.378-0.252h0.063v0.063
		c0,0.126-0.126,0.315-0.252,0.315S479.155,399.717,479.155,399.654L479.155,399.654z M480.163,399.843h0.315l-0.063-0.504
		c0-0.063,0-0.126,0-0.126c0-0.189,0.063-0.315,0.189-0.315c0.126,0,0.189,0.063,0.189,0.189l0.126,0.693l0.252-0.063l-0.063-0.504
		c0-0.063,0-0.063,0-0.126c0-0.126,0.063-0.252,0.189-0.315c0.189,0,0.189,0.126,0.189,0.252l0.126,0.63l0.252-0.063l-0.063-0.693
		c-0.063-0.252-0.189-0.378-0.441-0.378c-0.189,0.063-0.315,0.189-0.378,0.315l0,0c-0.063-0.189-0.189-0.252-0.315-0.189
		c-0.189,0-0.315,0.126-0.315,0.252l0,0c0,0,0,0-0.063-0.063v-0.126l-0.252,0.063L480.163,399.843z"/>
	<path fill-rule="evenodd" clip-rule="evenodd" fill="#464342" d="M469.328,394.74c0,0.756,0.441,1.449,1.134,1.827l-0.945-2.646
		C469.391,394.173,469.328,394.425,469.328,394.74L469.328,394.74z"/>
	<path fill-rule="evenodd" clip-rule="evenodd" fill="#464342" d="M472.667,394.614c0-0.252-0.063-0.378-0.126-0.567
		c-0.126-0.126-0.189-0.252-0.189-0.441c0-0.189,0.126-0.378,0.315-0.378l0,0c-0.315-0.315-0.819-0.504-1.323-0.504
		c-0.693,0-1.323,0.378-1.701,0.882c0.063,0,0.126,0,0.126,0c0.252,0,0.567,0,0.567,0c0.063,0,0.126,0.126,0,0.189
		c0,0-0.126,0-0.252,0l0.756,2.142l0.441-1.323l-0.315-0.819c-0.126,0-0.189,0-0.189,0c-0.126-0.063-0.126-0.189,0-0.189
		c0,0,0.315,0,0.504,0c0.252,0,0.567,0,0.567,0c0.063,0,0.126,0.126,0,0.189c0,0-0.126,0-0.252,0l0.756,2.142l0.189-0.63
		C472.604,394.992,472.667,394.803,472.667,394.614L472.667,394.614z"/>
	<path fill-rule="evenodd" clip-rule="evenodd" fill="#464342" d="M471.344,394.929l-0.567,1.701
		c0.189,0.063,0.378,0.126,0.567,0.126c0.252,0,0.441-0.063,0.63-0.126c0,0,0,0,0-0.063L471.344,394.929z"/>
	<path fill-rule="evenodd" clip-rule="evenodd" fill="#464342" d="M473.108,393.732c0,0.126,0,0.189,0,0.252
		c0,0.189-0.063,0.441-0.126,0.693l-0.63,1.764c0.567-0.315,1.008-0.945,1.008-1.701
		C473.36,394.362,473.234,394.047,473.108,393.732L473.108,393.732z"/>
	<path fill-rule="evenodd" clip-rule="evenodd" fill="#464342" d="M471.344,392.409c-1.323,0-2.331,1.008-2.331,2.331
		c0,1.26,1.008,2.331,2.331,2.331c1.26,0,2.331-1.071,2.331-2.331C473.675,393.417,472.604,392.409,471.344,392.409L471.344,392.409
		z M471.344,396.945c-1.26,0-2.268-1.008-2.268-2.205c0-1.26,1.008-2.268,2.268-2.268c1.197,0,2.205,1.008,2.205,2.268
		C473.549,395.937,472.541,396.945,471.344,396.945L471.344,396.945z"/>
	<g>
		<defs>
			<path id="SVGID_13_" d="M481.675,394.74c0-1.323-1.071-2.331-2.331-2.331c-1.323,0-2.331,1.008-2.331,2.331
				c0,1.26,1.008,2.331,2.331,2.331C480.604,397.071,481.675,396,481.675,394.74L481.675,394.74z"/>
		</defs>
		<clipPath id="SVGID_2_">
			<use xlink:href="#SVGID_13_"  overflow="visible"/>
		</clipPath>
		<polygon clip-path="url(#SVGID_2_)" fill-rule="evenodd" clip-rule="evenodd" fill="#37AEE2" points="482.809,393.354 
			482.305,394.551 477.391,392.409 477.958,391.213 		"/>
		<polygon clip-path="url(#SVGID_2_)" fill-rule="evenodd" clip-rule="evenodd" fill="#36ADE1" points="482.305,394.488 
			482.305,394.614 477.391,392.472 477.454,392.409 		"/>
		<polygon clip-path="url(#SVGID_2_)" fill-rule="evenodd" clip-rule="evenodd" fill="#36ADE1" points="482.305,394.551 
			482.242,394.677 477.391,392.535 477.391,392.472 		"/>
		<polygon clip-path="url(#SVGID_2_)" fill-rule="evenodd" clip-rule="evenodd" fill="#35ACE0" points="482.305,394.614 
			482.242,394.677 477.328,392.598 477.391,392.535 		"/>
		<polygon clip-path="url(#SVGID_2_)" fill-rule="evenodd" clip-rule="evenodd" fill="#35ACE0" points="482.242,394.677 
			482.242,394.74 477.328,392.661 477.328,392.598 		"/>
		<polygon clip-path="url(#SVGID_2_)" fill-rule="evenodd" clip-rule="evenodd" fill="#34ABDF" points="482.242,394.74 
			482.179,394.803 477.265,392.724 477.328,392.661 		"/>
		<polygon clip-path="url(#SVGID_2_)" fill-rule="evenodd" clip-rule="evenodd" fill="#34ABDF" points="482.179,394.803 
			482.179,394.866 477.265,392.787 477.328,392.724 		"/>
		<polygon clip-path="url(#SVGID_2_)" fill-rule="evenodd" clip-rule="evenodd" fill="#33AADE" points="482.179,394.866 
			482.116,394.929 477.265,392.85 477.265,392.724 		"/>
		<polygon clip-path="url(#SVGID_2_)" fill-rule="evenodd" clip-rule="evenodd" fill="#33AADD" points="482.179,394.929 
			482.116,394.992 477.202,392.913 477.265,392.787 		"/>
		<polygon clip-path="url(#SVGID_2_)" fill-rule="evenodd" clip-rule="evenodd" fill="#32A9DD" points="482.116,394.992 
			482.116,395.055 477.202,392.976 477.202,392.85 		"/>
		<polygon clip-path="url(#SVGID_2_)" fill-rule="evenodd" clip-rule="evenodd" fill="#32A9DC" points="482.116,395.055 
			482.053,395.118 477.202,393.039 477.202,392.913 		"/>
		<polygon clip-path="url(#SVGID_2_)" fill-rule="evenodd" clip-rule="evenodd" fill="#31A8DC" points="482.053,395.055 
			482.053,395.181 477.139,393.102 477.202,392.976 		"/>
		<polygon clip-path="url(#SVGID_2_)" fill-rule="evenodd" clip-rule="evenodd" fill="#30A8DB" points="482.053,395.118 
			481.99,395.244 477.139,393.102 477.139,393.039 		"/>
		<polygon clip-path="url(#SVGID_2_)" fill-rule="evenodd" clip-rule="evenodd" fill="#30A7DB" points="482.053,395.181 
			481.99,395.307 477.076,393.165 477.139,393.102 		"/>
		<polygon clip-path="url(#SVGID_2_)" fill-rule="evenodd" clip-rule="evenodd" fill="#2FA7DA" points="481.99,395.244 
			481.99,395.37 477.076,393.228 477.139,393.165 		"/>
		<polygon clip-path="url(#SVGID_2_)" fill-rule="evenodd" clip-rule="evenodd" fill="#2FA6DA" points="481.99,395.307 
			481.927,395.433 477.076,393.291 477.076,393.228 		"/>
		<polygon clip-path="url(#SVGID_2_)" fill-rule="evenodd" clip-rule="evenodd" fill="#2EA6D9" points="481.927,395.37 
			481.927,395.433 477.013,393.354 477.076,393.291 		"/>
		<polygon clip-path="url(#SVGID_2_)" fill-rule="evenodd" clip-rule="evenodd" fill="#2EA5D8" points="481.927,395.433 
			481.864,395.496 477.013,393.417 477.013,393.354 		"/>
		<polygon clip-path="url(#SVGID_2_)" fill-rule="evenodd" clip-rule="evenodd" fill="#2DA5D8" points="481.927,395.496 
			481.864,395.559 476.95,393.48 477.013,393.417 		"/>
		<polygon clip-path="url(#SVGID_2_)" fill-rule="evenodd" clip-rule="evenodd" fill="#2DA4D7" points="481.864,395.559 
			481.864,395.622 476.95,393.543 477.013,393.48 		"/>
		<polygon clip-path="url(#SVGID_2_)" fill-rule="evenodd" clip-rule="evenodd" fill="#2CA4D7" points="481.864,395.622 
			481.801,395.685 476.95,393.606 476.95,393.48 		"/>
		<polygon clip-path="url(#SVGID_2_)" fill-rule="evenodd" clip-rule="evenodd" fill="#2CA3D6" points="481.801,395.685 
			481.801,395.748 476.887,393.669 476.95,393.543 		"/>
		<polygon clip-path="url(#SVGID_2_)" fill-rule="evenodd" clip-rule="evenodd" fill="#2BA3D6" points="481.801,395.748 
			481.801,395.811 476.887,393.732 476.887,393.606 		"/>
		<polygon clip-path="url(#SVGID_2_)" fill-rule="evenodd" clip-rule="evenodd" fill="#2BA2D5" points="481.801,395.811 
			481.738,395.874 476.824,393.795 476.887,393.669 		"/>
		<polygon clip-path="url(#SVGID_2_)" fill-rule="evenodd" clip-rule="evenodd" fill="#2AA1D4" points="481.738,395.811 
			481.738,395.937 476.824,393.858 476.887,393.732 		"/>
		<polygon clip-path="url(#SVGID_2_)" fill-rule="evenodd" clip-rule="evenodd" fill="#29A1D4" points="481.738,395.874 
			481.675,396 476.824,393.858 476.824,393.795 		"/>
		<polygon clip-path="url(#SVGID_2_)" fill-rule="evenodd" clip-rule="evenodd" fill="#29A0D3" points="481.738,395.937 
			481.675,396.063 476.761,393.921 476.824,393.858 		"/>
		<polygon clip-path="url(#SVGID_2_)" fill-rule="evenodd" clip-rule="evenodd" fill="#28A0D3" points="481.675,396 
			481.675,396.126 476.761,393.984 476.761,393.921 		"/>
		<polygon clip-path="url(#SVGID_2_)" fill-rule="evenodd" clip-rule="evenodd" fill="#289FD2" points="481.675,396.063 
			481.612,396.189 476.698,394.047 476.761,393.984 		"/>
		<polygon clip-path="url(#SVGID_2_)" fill-rule="evenodd" clip-rule="evenodd" fill="#279FD2" points="481.612,396.126 
			481.612,396.189 476.698,394.11 476.761,394.047 		"/>
		<polygon clip-path="url(#SVGID_2_)" fill-rule="evenodd" clip-rule="evenodd" fill="#279ED1" points="481.612,396.189 
			481.549,396.252 476.698,394.173 476.698,394.11 		"/>
		<polygon clip-path="url(#SVGID_2_)" fill-rule="evenodd" clip-rule="evenodd" fill="#269ED0" points="481.612,396.252 
			481.549,396.315 476.635,394.236 476.698,394.173 		"/>
		<polygon clip-path="url(#SVGID_2_)" fill-rule="evenodd" clip-rule="evenodd" fill="#269DD0" points="481.549,396.315 
			481.549,396.378 476.635,394.299 476.635,394.236 		"/>
		<polygon clip-path="url(#SVGID_2_)" fill-rule="evenodd" clip-rule="evenodd" fill="#259DCF" points="481.549,396.378 
			481.486,396.441 476.572,394.362 476.635,394.236 		"/>
		<polygon clip-path="url(#SVGID_2_)" fill-rule="evenodd" clip-rule="evenodd" fill="#259CCF" points="481.486,396.441 
			481.486,396.504 476.572,394.425 476.635,394.299 		"/>
		<polygon clip-path="url(#SVGID_2_)" fill-rule="evenodd" clip-rule="evenodd" fill="#249CCE" points="481.486,396.504 
			481.423,396.567 476.572,394.488 476.572,394.362 		"/>
		<polygon clip-path="url(#SVGID_2_)" fill-rule="evenodd" clip-rule="evenodd" fill="#239BCE" points="481.486,396.567 
			481.423,396.63 476.509,394.551 476.572,394.425 		"/>
		<polygon clip-path="url(#SVGID_2_)" fill-rule="evenodd" clip-rule="evenodd" fill="#239BCD" points="481.423,396.567 
			481.423,396.693 476.509,394.614 476.509,394.488 		"/>
		<polygon clip-path="url(#SVGID_2_)" fill-rule="evenodd" clip-rule="evenodd" fill="#229ACD" points="481.423,396.63 
			481.36,396.756 476.446,394.614 476.509,394.551 		"/>
		<polygon clip-path="url(#SVGID_2_)" fill-rule="evenodd" clip-rule="evenodd" fill="#229ACC" points="481.36,396.693 
			481.36,396.819 476.446,394.677 476.509,394.614 		"/>
		<polygon clip-path="url(#SVGID_2_)" fill-rule="evenodd" clip-rule="evenodd" fill="#2199CB" points="481.36,396.756 
			481.297,396.882 476.446,394.74 476.446,394.677 		"/>
		<polygon clip-path="url(#SVGID_2_)" fill-rule="evenodd" clip-rule="evenodd" fill="#2199CB" points="481.36,396.819 
			481.297,396.945 476.383,394.803 476.446,394.74 		"/>
		<polygon clip-path="url(#SVGID_2_)" fill-rule="evenodd" clip-rule="evenodd" fill="#2098CA" points="481.297,396.882 
			481.297,397.008 476.383,394.866 476.383,394.803 		"/>
		<polygon clip-path="url(#SVGID_2_)" fill-rule="evenodd" clip-rule="evenodd" fill="#2098CA" points="481.297,396.945 
			481.234,397.008 476.32,394.929 476.383,394.866 		"/>
		<polygon clip-path="url(#SVGID_2_)" fill-rule="evenodd" clip-rule="evenodd" fill="#1F97C9" points="481.234,397.008 
			481.234,397.071 476.32,394.992 476.383,394.929 		"/>
		<polygon clip-path="url(#SVGID_2_)" fill-rule="evenodd" clip-rule="evenodd" fill="#1F97C9" points="481.234,397.071 
			481.171,397.134 476.32,395.055 476.32,394.992 		"/>
		<polygon clip-path="url(#SVGID_2_)" fill-rule="evenodd" clip-rule="evenodd" fill="#1E96C8" points="481.234,397.134 
			480.73,398.205 475.816,396.126 476.32,394.992 		"/>
	</g>
	<path fill-rule="evenodd" clip-rule="evenodd" fill="#C8DAEA" d="M478.903,395.811c-0.063,0-0.063-0.063-0.063-0.126l-0.252-0.693
		l1.701-1.071 M478.903,395.811L478.903,395.811L478.903,395.811z"/>
	<path fill-rule="evenodd" clip-rule="evenodd" fill="#A9C9DD" d="M478.903,395.811c0.063,0,0.063-0.063,0.126-0.063l0.315-0.315
		l-0.378-0.252 M478.903,395.811L478.903,395.811L478.903,395.811z"/>
	<g>
		<defs>
			<path id="SVGID_15_" d="M478.966,395.181l0.945,0.693c0.063,0.063,0.189,0.063,0.189-0.063l0.378-1.827
				c0.063-0.126-0.063-0.252-0.126-0.189l-2.268,0.882c-0.189,0.063-0.189,0.126-0.063,0.189l0.567,0.189l1.386-0.882
				c0.063,0,0.126,0,0.063,0.063L478.966,395.181z M478.966,395.181L478.966,395.181L478.966,395.181z"/>
		</defs>
		<clipPath id="SVGID_4_">
			<use xlink:href="#SVGID_15_"  overflow="visible"/>
		</clipPath>
		<polygon clip-path="url(#SVGID_4_)" fill-rule="evenodd" clip-rule="evenodd" fill="#EFF7FC" points="480.226,393.291 
			480.478,393.732 478.147,395.181 477.895,394.74 		"/>
		<polygon clip-path="url(#SVGID_4_)" fill-rule="evenodd" clip-rule="evenodd" fill="#F0F8FC" points="480.478,393.732 
			480.478,393.795 478.147,395.244 478.147,395.181 		"/>
		<polygon clip-path="url(#SVGID_4_)" fill-rule="evenodd" clip-rule="evenodd" fill="#F1F8FC" points="480.478,393.732 
			480.541,393.858 478.21,395.307 478.147,395.181 		"/>
		<polygon clip-path="url(#SVGID_4_)" fill-rule="evenodd" clip-rule="evenodd" fill="#F2F9FD" points="480.541,393.795 
			480.541,393.858 478.21,395.37 478.21,395.244 		"/>
		<polygon clip-path="url(#SVGID_4_)" fill-rule="evenodd" clip-rule="evenodd" fill="#F4F9FD" points="480.541,393.858 
			480.604,393.921 478.273,395.37 478.21,395.307 		"/>
		<polygon clip-path="url(#SVGID_4_)" fill-rule="evenodd" clip-rule="evenodd" fill="#F5FAFD" points="480.604,393.921 
			480.604,393.984 478.273,395.433 478.273,395.37 		"/>
		<polygon clip-path="url(#SVGID_4_)" fill-rule="evenodd" clip-rule="evenodd" fill="#F6FAFD" points="480.604,393.984 
			480.667,394.047 478.336,395.496 478.273,395.433 		"/>
		<polygon clip-path="url(#SVGID_4_)" fill-rule="evenodd" clip-rule="evenodd" fill="#F7FBFE" points="480.667,394.047 
			480.667,394.11 478.336,395.559 478.336,395.496 		"/>
		<polygon clip-path="url(#SVGID_4_)" fill-rule="evenodd" clip-rule="evenodd" fill="#F8FCFE" points="480.667,394.047 
			480.73,394.173 478.399,395.622 478.336,395.496 		"/>
		<polygon clip-path="url(#SVGID_4_)" fill-rule="evenodd" clip-rule="evenodd" fill="#F9FCFE" points="480.73,394.11 
			480.73,394.173 478.399,395.622 478.399,395.559 		"/>
		<polygon clip-path="url(#SVGID_4_)" fill-rule="evenodd" clip-rule="evenodd" fill="#FAFDFE" points="480.73,394.173 
			480.793,394.236 478.462,395.685 478.399,395.622 		"/>
		<polygon clip-path="url(#SVGID_4_)" fill-rule="evenodd" clip-rule="evenodd" fill="#FCFDFE" points="480.793,394.236 
			480.793,394.299 478.525,395.748 478.462,395.685 		"/>
		<polygon clip-path="url(#SVGID_4_)" fill-rule="evenodd" clip-rule="evenodd" fill="#FDFEFF" points="480.793,394.299 
			480.856,394.362 478.525,395.811 478.462,395.748 		"/>
		<polygon clip-path="url(#SVGID_4_)" fill-rule="evenodd" clip-rule="evenodd" fill="#FEFEFF" points="480.856,394.299 
			480.856,394.425 478.588,395.874 478.525,395.811 		"/>
		<polygon clip-path="url(#SVGID_4_)" fill-rule="evenodd" clip-rule="evenodd" fill="#FFFFFF" points="480.856,394.362 
			481.36,395.118 479.029,396.567 478.525,395.811 		"/>
	</g>
</g>
</svg>
